# xmcd
#
# Track frame offsets: 
#        150
#        11912
#        45792
#        66224
#        104596
#        127173
#        159043
#        169725
#        213437
#        245239
#
# Disc length: 3913 seconds
#
# Revision: 0
# Processed by: cddbd v1.5.2PL0 Copyright (c) Steve Scherf et al.
# Submitted via: ExactAudioCopy v1.0b1
#
DISCID=880f470a
DTITLE=Natalia M. King - Fury And Sound
DYEAR=2003
DGENRE=Vocal Jazz, Blues, Soul
TTITLE0=Grab a Hold
TTITLE1=Before
TTITLE2=Lyla
TTITLE3=Fury and Sound
TTITLE4=Love Is
TTITLE5=Dive
TTITLE6=Let It All
TTITLE7=Carry On
TTITLE8=Senses
TTITLE9=Come Rest
EXTD=
EXTT0=
EXTT1=
EXTT2=
EXTT3=
EXTT4=
EXTT5=
EXTT6=
EXTT7=
EXTT8=
EXTT9=
PLAYORDER=
